<svg width="22" height="24" viewBox="0 0 22 24" fill="none" xmlns="http://www.w3.org/2000/svg">
<g id="Group 52">
<path id="Vector" d="M10.9989 0C10.1297 0 9.42751 0.670313 9.42751 1.5V2.4C5.84273 3.09375 3.14188 6.12188 3.14188 9.75V10.6313C3.14188 12.8344 2.29233 14.9625 0.760211 16.6125L0.396823 17.0016C-0.0156719 17.4422 -0.113885 18.075 0.136558 18.6141C0.387001 19.1531 0.951726 19.5 1.57047 19.5H20.4274C21.0461 19.5 21.6059 19.1531 21.8613 18.6141C22.1166 18.075 22.0135 17.4422 21.601 17.0016L21.2376 16.6125C19.7055 14.9625 18.856 12.8391 18.856 10.6313V9.75C18.856 6.12188 16.1551 3.09375 12.5703 2.4V1.5C12.5703 0.670313 11.8681 0 10.9989 0ZM13.2234 23.1234C13.8127 22.5609 14.1417 21.7969 14.1417 21H7.8561C7.8561 21.7969 8.18511 22.5609 8.77439 23.1234C9.36367 23.6859 10.1641 24 10.9989 24C11.8337 24 12.6342 23.6859 13.2234 23.1234Z" fill="black"/>
<circle id="Ellipse 3" cx="17.5" cy="4.5" r="3.5" fill="#FD84DB"/>
</g>
</svg>
