<svg width="25" height="21" viewBox="0 0 25 21" fill="none" xmlns="http://www.w3.org/2000/svg">
<path id="Vector" fill-rule="evenodd" clip-rule="evenodd" d="M0 1.75C0 1.28587 0.188137 0.840752 0.523023 0.512563C0.85791 0.184375 1.31211 0 1.78571 0H23.2143C23.6879 0 24.1421 0.184375 24.477 0.512563C24.8119 0.840752 25 1.28587 25 1.75C25 2.21413 24.8119 2.65925 24.477 2.98744C24.1421 3.31563 23.6879 3.5 23.2143 3.5H1.78571C1.31211 3.5 0.85791 3.31563 0.523023 2.98744C0.188137 2.65925 0 2.21413 0 1.75ZM0 10.5C0 10.0359 0.188137 9.59075 0.523023 9.26256C0.85791 8.93437 1.31211 8.75 1.78571 8.75H12.5C12.9736 8.75 13.4278 8.93437 13.7627 9.26256C14.0976 9.59075 14.2857 10.0359 14.2857 10.5C14.2857 10.9641 14.0976 11.4092 13.7627 11.7374C13.4278 12.0656 12.9736 12.25 12.5 12.25H1.78571C1.31211 12.25 0.85791 12.0656 0.523023 11.7374C0.188137 11.4092 0 10.9641 0 10.5ZM0 19.25C0 18.7859 0.188137 18.3408 0.523023 18.0126C0.85791 17.6844 1.31211 17.5 1.78571 17.5H23.2143C23.6879 17.5 24.1421 17.6844 24.477 18.0126C24.8119 18.3408 25 18.7859 25 19.25C25 19.7141 24.8119 20.1592 24.477 20.4874C24.1421 20.8156 23.6879 21 23.2143 21H1.78571C1.31211 21 0.85791 20.8156 0.523023 20.4874C0.188137 20.1592 0 19.7141 0 19.25Z" fill="black"/>
</svg>
